<?xml version="1.0" standalone="no"?>
<!DOCTYPE svg PUBLIC "-//W3C//DTD SVG 20010904//EN"
 "http://www.w3.org/TR/2001/REC-SVG-20010904/DTD/svg10.dtd">
<svg version="1.0" xmlns="http://www.w3.org/2000/svg"
 width="2400.000000pt" height="2400.000000pt" viewBox="0 0 2400.000000 2400.000000"
 preserveAspectRatio="xMidYMid meet">
<metadata>
Created by potrace 1.11, written by Peter Selinger 2001-2013
</metadata>
<g transform="translate(0.000000,2400.000000) scale(0.100000,-0.100000)"
fill="#000000" stroke="none">
<path d="M7664 23373 c-1 -30 -14 -166 -19 -193 -2 -14 -7 -56 -10 -95 -3 -38
-8 -81 -10 -95 -5 -29 -14 -122 -20 -200 -3 -30 -7 -71 -9 -90 -3 -19 -8 -60
-11 -90 -5 -53 -12 -116 -20 -190 -2 -19 -7 -64 -10 -100 -3 -36 -8 -81 -10
-100 -2 -19 -7 -64 -10 -100 -6 -63 -10 -98 -20 -177 -2 -21 -7 -67 -10 -103
-3 -36 -7 -81 -10 -100 -3 -19 -7 -64 -10 -100 -3 -35 -7 -76 -10 -90 -2 -14
-6 -54 -10 -90 -8 -81 -14 -138 -20 -192 -2 -24 -7 -68 -10 -98 -5 -51 -10
-103 -20 -190 -2 -19 -7 -64 -10 -100 -4 -36 -8 -81 -10 -100 -2 -19 -7 -60
-10 -90 -6 -60 -14 -138 -20 -186 -2 -17 -7 -66 -10 -110 -3 -43 -8 -86 -10
-94 -2 -8 -7 -51 -10 -95 -3 -44 -8 -91 -10 -105 -3 -14 -7 -50 -10 -80 -13
-133 -24 -236 -30 -290 -2 -19 -7 -62 -10 -95 -3 -33 -8 -78 -10 -100 -3 -22
-7 -65 -10 -95 -15 -156 -25 -246 -30 -280 -2 -14 -6 -59 -10 -100 -4 -41 -8
-86 -10 -100 -2 -14 -7 -58 -10 -98 -4 -41 -8 -82 -10 -92 -2 -10 -6 -51 -10
-92 -3 -40 -8 -84 -10 -98 -2 -14 -7 -56 -10 -95 -3 -38 -7 -86 -10 -105 -7
-56 -14 -111 -20 -175 -3 -33 -8 -80 -10 -105 -3 -25 -7 -72 -10 -105 -3 -33
-8 -71 -10 -85 -2 -14 -7 -59 -11 -100 -4 -41 -8 -84 -10 -95 -1 -11 -3 -32
-3 -46 -1 -25 -6 -28 -98 -49 -471 -106 -1112 -318 -1501 -496 -41 -19 -75
-34 -77 -34 -16 0 -399 -188 -580 -285 -131 -70 -369 -207 -480 -278 -127 -80
-340 -220 -345 -227 -3 -4 -20 -15 -38 -25 -17 -11 -32 -23 -32 -27 0 -4 -4
-8 -10 -8 -5 0 -38 -21 -72 -47 -35 -25 -97 -72 -138 -102 -41 -31 -77 -59
-80 -62 -3 -3 -23 -19 -45 -35 -275 -198 -915 -799 -1145 -1074 -11 -14 -33
-38 -48 -55 -97 -104 -345 -415 -487 -610 -107 -147 -351 -511 -375 -560 -3
-6 -30 -53 -61 -105 -377 -632 -691 -1361 -874 -2025 -19 -71 -42 -152 -50
-180 -16 -56 -71 -292 -80 -344 -3 -19 -8 -38 -10 -41 -3 -4 -7 -25 -11 -45
-3 -21 -8 -47 -10 -59 -14 -69 -63 -349 -68 -391 -4 -27 -11 -77 -16 -110 -9
-59 -12 -88 -25 -210 -4 -33 -8 -71 -10 -85 -2 -14 -7 -61 -10 -105 -3 -44 -8
-96 -10 -115 -12 -107 -20 -366 -20 -675 1 -340 6 -490 30 -765 3 -41 8 -82
10 -90 2 -8 6 -47 9 -85 4 -39 8 -80 10 -90 4 -24 19 -132 21 -160 1 -11 5
-38 9 -60 4 -22 9 -56 11 -75 3 -19 7 -46 10 -60 3 -14 10 -52 15 -85 9 -56
12 -73 25 -135 2 -14 7 -36 9 -50 27 -158 117 -520 187 -755 170 -569 422
-1178 681 -1644 32 -57 58 -105 58 -107 0 -22 404 -661 490 -774 14 -19 80
-107 145 -195 66 -88 122 -162 125 -165 3 -3 24 -27 45 -55 56 -71 261 -311
315 -369 25 -27 74 -81 110 -120 138 -149 426 -430 570 -556 41 -36 77 -67 80
-70 3 -3 34 -30 70 -60 35 -30 70 -61 78 -67 7 -7 75 -61 150 -120 75 -59 142
-111 147 -116 43 -36 329 -238 455 -321 148 -99 436 -275 565 -346 248 -136
481 -253 720 -360 112 -50 251 -107 350 -145 39 -15 97 -38 130 -50 84 -33
212 -78 330 -116 55 -17 109 -35 120 -40 43 -18 533 -152 595 -163 14 -2 43
-9 65 -14 22 -6 51 -13 65 -16 14 -2 45 -9 70 -15 25 -5 61 -13 80 -16 19 -3
53 -10 75 -15 22 -5 56 -11 75 -15 19 -3 48 -8 63 -11 16 -3 38 -7 50 -9 12
-2 40 -6 62 -9 22 -4 58 -9 80 -12 22 -4 49 -8 60 -10 24 -5 78 -12 130 -19
22 -2 56 -6 75 -9 59 -8 153 -18 185 -21 108 -9 196 -17 230 -20 287 -27 1031
-27 1335 0 25 2 79 6 120 9 42 4 84 8 95 10 11 2 55 7 98 11 43 3 88 8 100 10
12 2 45 6 72 10 28 3 66 9 85 11 72 10 347 55 415 69 39 8 81 16 95 18 14 3
36 8 50 11 14 3 36 8 50 10 270 45 1031 271 1315 391 17 7 57 23 90 35 33 13
78 31 100 40 22 10 83 36 136 58 331 140 875 423 1102 574 32 21 61 38 63 38
13 0 404 267 547 373 238 176 371 283 587 473 211 185 508 474 665 648 39 43
79 88 90 100 11 12 43 48 70 81 28 32 55 63 60 69 6 6 49 58 95 116 47 58 88
107 91 110 13 11 230 300 295 394 438 625 807 1329 1044 1991 18 50 36 99 40
110 29 72 129 395 174 555 103 373 196 846 241 1219 4 30 8 61 10 70 1 9 6 54
10 101 4 47 9 92 10 101 2 9 6 67 10 130 4 63 9 132 12 154 2 22 6 216 8 430
3 215 5 393 5 396 0 4 123 48 273 98 149 49 475 158 722 241 248 84 457 153
465 156 8 2 276 92 595 200 319 107 585 197 590 198 6 2 17 6 25 9 8 3 245 82
525 176 612 205 2765 927 2815 945 21 7 34 18 32 27 -2 7 -363 975 -803 2149
-968 2581 -980 2613 -985 2622 -3 4 -433 -137 -957 -313 -922 -309 -2039 -684
-2957 -991 -245 -82 -452 -152 -460 -155 -8 -3 -19 -7 -25 -9 -5 -1 -192 -64
-415 -138 -532 -179 -673 -226 -676 -223 -1 1 48 65 109 143 62 77 123 156
137 174 14 18 43 56 66 84 22 28 65 83 94 121 72 93 277 356 293 375 7 8 100
128 208 265 107 138 267 342 354 454 88 112 176 225 195 250 20 25 209 267
420 536 211 270 406 519 434 555 106 138 191 245 196 250 3 3 19 23 35 45 16
22 42 56 58 75 15 19 31 40 35 45 35 46 118 151 122 155 3 3 25 32 50 65 25
33 47 62 50 65 3 3 134 169 290 370 156 201 287 367 290 370 3 3 25 32 50 65
25 33 48 62 51 65 3 3 42 53 87 111 l81 106 -226 164 c-125 90 -238 172 -252
181 -27 17 -488 351 -596 431 -33 24 -224 162 -425 307 -201 144 -383 276
-405 292 -33 24 -185 134 -280 203 -11 7 -211 152 -445 321 -234 169 -472 341
-530 382 -58 42 -109 80 -115 84 -8 7 -550 398 -621 448 -12 8 -79 57 -149
107 l-127 92 -77 -97 c-42 -53 -89 -114 -106 -136 -16 -21 -50 -64 -75 -96
-25 -31 -99 -126 -165 -211 -66 -85 -125 -161 -132 -169 -31 -39 -147 -187
-228 -290 -49 -63 -93 -119 -97 -125 -84 -107 -107 -137 -128 -164 -14 -18
-43 -56 -65 -84 -22 -29 -42 -54 -45 -57 -3 -3 -28 -34 -55 -70 -27 -36 -61
-79 -75 -96 -14 -17 -37 -46 -51 -65 -111 -143 -553 -709 -569 -727 -10 -13
-29 -37 -42 -55 -12 -18 -25 -34 -28 -37 -5 -4 -225 -285 -302 -385 -5 -5 -27
-35 -51 -65 -102 -130 -264 -338 -289 -370 -31 -40 -302 -388 -321 -410 -7 -8
-26 -33 -42 -55 -16 -22 -32 -42 -35 -45 -4 -3 -53 -66 -111 -140 -57 -74
-111 -144 -121 -155 -9 -11 -107 -137 -219 -280 -111 -143 -218 -280 -238
-304 -20 -25 -44 -56 -54 -70 -18 -26 -18 -26 -12 44 4 39 8 84 10 100 3 26 6
61 20 195 1 14 6 59 9 100 4 41 9 86 11 100 5 35 14 115 20 178 3 28 7 76 10
105 7 71 15 145 20 187 2 19 7 64 10 100 4 36 8 76 10 90 2 14 7 59 11 100 3
41 7 86 9 100 2 14 6 52 9 85 4 33 9 76 11 95 2 19 7 67 11 105 4 39 8 81 9
95 2 14 6 61 10 105 4 44 9 82 10 85 2 3 6 43 10 90 4 47 9 92 10 102 2 9 6
53 10 98 4 45 8 89 10 98 1 10 6 51 10 92 11 115 12 120 19 190 4 36 9 81 11
100 8 71 24 227 30 290 3 36 8 76 10 90 3 14 7 59 11 100 7 83 9 100 18 180 7
55 11 97 21 200 3 30 7 71 10 90 2 19 7 64 10 100 3 36 7 79 9 95 2 17 7 59
10 95 9 93 17 161 21 190 2 14 7 57 10 95 4 39 9 81 10 95 1 14 6 59 9 100 4
41 9 89 11 105 2 17 7 57 10 90 3 33 10 96 15 140 5 44 12 112 15 150 4 39 8
81 11 95 2 14 6 59 10 100 3 41 7 86 9 100 4 28 13 112 19 183 4 43 3 47 -17
48 -12 1 -31 3 -42 4 -11 1 -65 6 -120 10 -158 11 -184 13 -280 20 -49 3 -112
8 -140 10 -27 3 -86 7 -130 10 -95 6 -201 14 -270 20 -27 3 -86 7 -130 10 -44
3 -107 8 -140 10 -61 5 -136 10 -280 20 -44 3 -102 8 -130 10 -27 2 -90 6
-140 9 -49 4 -112 9 -140 11 -27 3 -86 7 -130 10 -44 3 -105 7 -135 10 -30 2
-93 7 -140 10 -47 3 -105 8 -130 10 -25 2 -83 7 -130 10 -47 3 -110 7 -140 10
-84 7 -186 14 -275 20 -44 3 -105 7 -135 10 -30 3 -89 7 -130 10 -75 4 -147 9
-295 21 -120 9 -151 12 -260 18 -55 4 -122 9 -150 11 -108 10 -164 14 -255 20
-52 3 -120 8 -150 10 -158 13 -197 16 -253 20 -34 2 -96 6 -137 9 -41 4 -104
8 -140 11 -36 3 -97 7 -135 10 -63 5 -71 4 -71 -12z"/>
</g>
</svg>
